<?xml version="1.0" standalone="no"?>
<!DOCTYPE svg PUBLIC "-//W3C//DTD SVG 20010904//EN"
 "http://www.w3.org/TR/2001/REC-SVG-20010904/DTD/svg10.dtd">
<svg version="1.0" xmlns="http://www.w3.org/2000/svg"
 width="700.000000pt" height="700.000000pt" viewBox="0 0 700.000000 700.000000"
 preserveAspectRatio="xMidYMid meet">
<metadata>
Created by potrace 1.14, written by Peter Selinger 2001-2017
</metadata>
<g transform="translate(0.000000,700.000000) scale(0.100000,-0.100000)"
fill="#000000" stroke="none">
<path d="M3287 6989 c-933 -56 -1810 -487 -2421 -1192 -484 -557 -772 -1225
-847 -1962 -15 -154 -15 -516 0 -670 66 -646 299 -1246 680 -1755 373 -496
866 -885 1427 -1125 666 -285 1382 -356 2102 -209 876 179 1681 727 2187 1489
318 479 492 960 567 1565 8 62 13 213 13 370 0 431 -50 729 -189 1136 -266
777 -808 1445 -1512 1864 -495 295 -1023 456 -1604 490 -192 11 -215 11 -403
-1z m1237 -1149 c99 -151 181 -201 329 -201 94 0 151 21 255 95 44 31 84 56
89 56 5 0 17 -46 27 -102 10 -57 29 -129 43 -160 30 -69 111 -149 180 -180 66
-30 187 -30 308 -1 50 11 92 20 93 18 2 -2 -6 -47 -18 -101 -31 -137 -26 -227
20 -313 61 -115 149 -169 318 -197 56 -9 102 -20 102 -24 0 -3 -29 -49 -65
-101 -80 -114 -99 -172 -93 -278 8 -138 61 -214 216 -314 50 -32 92 -62 92
-66 0 -4 -40 -33 -89 -65 -146 -93 -201 -174 -209 -307 -6 -106 13 -164 93
-278 36 -51 65 -94 63 -96 -2 -2 -54 -13 -117 -24 -63 -12 -136 -33 -163 -47
-66 -34 -124 -94 -158 -165 -41 -88 -45 -143 -16 -284 14 -65 23 -121 21 -123
-2 -2 -50 6 -106 18 -103 23 -219 24 -240 3 -5 -5 -14 -45 -19 -88 -25 -201
-108 -372 -249 -518 -112 -117 -242 -197 -406 -250 l-70 -22 -1570 -3 c-1432
-3 -1578 -1 -1665 14 -387 68 -713 329 -861 686 -139 338 -109 727 80 1034
161 260 411 444 706 518 95 24 253 38 340 31 l81 -6 18 58 c22 72 87 211 128
278 158 250 401 452 667 552 84 31 247 70 334 79 77 7 79 10 91 100 6 37 1 83
-18 174 -14 68 -25 125 -23 126 1 1 56 -9 122 -23 102 -21 128 -23 178 -14 80
14 143 46 197 101 62 61 88 119 111 246 10 59 21 109 23 111 2 3 46 -25 98
-60 117 -81 171 -102 263 -101 142 2 232 60 334 219 34 52 64 95 66 95 2 0 33
-45 69 -100z"/>
</g>
</svg>
